<?xml version="1.0" encoding="UTF-8" standalone="no"?>
<!DOCTYPE svg PUBLIC "-//W3C//DTD SVG 1.1//EN"
 "http://www.w3.org/Graphics/SVG/1.1/DTD/svg11.dtd">
<!-- Generated by graphviz version 2.43.0 (0)
 -->
<!-- Title: %3 Pages: 1 -->
<svg width="1778pt" height="476pt"
 viewBox="0.00 0.00 1778.18 476.00" xmlns="http://www.w3.org/2000/svg" xmlns:xlink="http://www.w3.org/1999/xlink">
<g id="graph0" class="graph" transform="scale(1 1) rotate(0) translate(4 472)">
<title>%3</title>
<polygon fill="white" stroke="transparent" points="-4,4 -4,-472 1774.18,-472 1774.18,4 -4,4"/>
<!-- [root] aws_cloudwatch_log_group.sample_function (expand) -->
<g id="node1" class="node">
<title>[root] aws_cloudwatch_log_group.sample_function (expand)</title>
<polygon fill="none" stroke="black" points="558.82,-324 228.82,-324 228.82,-288 558.82,-288 558.82,-324"/>
<text text-anchor="middle" x="393.82" y="-302.3" font-family="Times,serif" font-size="14.00">aws_cloudwatch_log_group.sample_function</text>
</g>
<!-- [root] provider[&quot;registry.terraform.io/hashicorp/aws&quot;] -->
<g id="node8" class="node">
<title>[root] provider[&quot;registry.terraform.io/hashicorp/aws&quot;]</title>
<polygon fill="none" stroke="black" points="542.82,-108 217.56,-90 542.82,-72 868.09,-90 542.82,-108"/>
<text text-anchor="middle" x="542.82" y="-86.3" font-family="Times,serif" font-size="14.00">provider[&quot;registry.terraform.io/hashicorp/aws&quot;]</text>
</g>
<!-- [root] aws_cloudwatch_log_group.sample_function (expand)&#45;&gt;[root] provider[&quot;registry.terraform.io/hashicorp/aws&quot;] -->
<g id="edge1" class="edge">
<title>[root] aws_cloudwatch_log_group.sample_function (expand)&#45;&gt;[root] provider[&quot;registry.terraform.io/hashicorp/aws&quot;]</title>
<path fill="none" stroke="black" d="M390.66,-287.91C385.77,-256.06 380.1,-187 412.82,-144 425.64,-127.17 444.7,-115.65 464.31,-107.79"/>
<polygon fill="black" stroke="black" points="465.8,-110.97 473.96,-104.22 463.37,-104.41 465.8,-110.97"/>
</g>
<!-- [root] aws_iam_policy.lambda_logging (expand) -->
<g id="node2" class="node">
<title>[root] aws_iam_policy.lambda_logging (expand)</title>
<polygon fill="none" stroke="black" points="663.32,-180 422.32,-180 422.32,-144 663.32,-144 663.32,-180"/>
<text text-anchor="middle" x="542.82" y="-158.3" font-family="Times,serif" font-size="14.00">aws_iam_policy.lambda_logging</text>
</g>
<!-- [root] aws_iam_policy.lambda_logging (expand)&#45;&gt;[root] provider[&quot;registry.terraform.io/hashicorp/aws&quot;] -->
<g id="edge2" class="edge">
<title>[root] aws_iam_policy.lambda_logging (expand)&#45;&gt;[root] provider[&quot;registry.terraform.io/hashicorp/aws&quot;]</title>
<path fill="none" stroke="black" d="M542.82,-143.7C542.82,-135.98 542.82,-126.71 542.82,-118.11"/>
<polygon fill="black" stroke="black" points="546.32,-118.1 542.82,-108.1 539.32,-118.1 546.32,-118.1"/>
</g>
<!-- [root] aws_iam_role.iam_for_lambda (expand) -->
<g id="node3" class="node">
<title>[root] aws_iam_role.iam_for_lambda (expand)</title>
<polygon fill="none" stroke="black" points="910.32,-180 681.32,-180 681.32,-144 910.32,-144 910.32,-180"/>
<text text-anchor="middle" x="795.82" y="-158.3" font-family="Times,serif" font-size="14.00">aws_iam_role.iam_for_lambda</text>
</g>
<!-- [root] aws_iam_role.iam_for_lambda (expand)&#45;&gt;[root] provider[&quot;registry.terraform.io/hashicorp/aws&quot;] -->
<g id="edge3" class="edge">
<title>[root] aws_iam_role.iam_for_lambda (expand)&#45;&gt;[root] provider[&quot;registry.terraform.io/hashicorp/aws&quot;]</title>
<path fill="none" stroke="black" d="M734.26,-143.97C694.75,-133.03 643.65,-118.9 604.18,-107.98"/>
<polygon fill="black" stroke="black" points="604.98,-104.57 594.41,-105.27 603.12,-111.31 604.98,-104.57"/>
</g>
<!-- [root] aws_iam_role_policy_attachment.lambda_logging (expand) -->
<g id="node4" class="node">
<title>[root] aws_iam_role_policy_attachment.lambda_logging (expand)</title>
<polygon fill="none" stroke="black" points="841.82,-252 475.82,-252 475.82,-216 841.82,-216 841.82,-252"/>
<text text-anchor="middle" x="658.82" y="-230.3" font-family="Times,serif" font-size="14.00">aws_iam_role_policy_attachment.lambda_logging</text>
</g>
<!-- [root] aws_iam_role_policy_attachment.lambda_logging (expand)&#45;&gt;[root] aws_iam_policy.lambda_logging (expand) -->
<g id="edge4" class="edge">
<title>[root] aws_iam_role_policy_attachment.lambda_logging (expand)&#45;&gt;[root] aws_iam_policy.lambda_logging (expand)</title>
<path fill="none" stroke="black" d="M630.45,-215.88C615.28,-206.72 596.42,-195.34 580.08,-185.48"/>
<polygon fill="black" stroke="black" points="581.68,-182.36 571.31,-180.19 578.06,-188.35 581.68,-182.36"/>
</g>
<!-- [root] aws_iam_role_policy_attachment.lambda_logging (expand)&#45;&gt;[root] aws_iam_role.iam_for_lambda (expand) -->
<g id="edge5" class="edge">
<title>[root] aws_iam_role_policy_attachment.lambda_logging (expand)&#45;&gt;[root] aws_iam_role.iam_for_lambda (expand)</title>
<path fill="none" stroke="black" d="M692.34,-215.88C710.67,-206.51 733.56,-194.81 753.15,-184.8"/>
<polygon fill="black" stroke="black" points="754.87,-187.86 762.18,-180.19 751.68,-181.62 754.87,-187.86"/>
</g>
<!-- [root] aws_lambda_function.sample_function (expand) -->
<g id="node5" class="node">
<title>[root] aws_lambda_function.sample_function (expand)</title>
<polygon fill="none" stroke="black" points="917.82,-324 627.82,-324 627.82,-288 917.82,-288 917.82,-324"/>
<text text-anchor="middle" x="772.82" y="-302.3" font-family="Times,serif" font-size="14.00">aws_lambda_function.sample_function</text>
</g>
<!-- [root] aws_lambda_function.sample_function (expand)&#45;&gt;[root] aws_iam_role_policy_attachment.lambda_logging (expand) -->
<g id="edge6" class="edge">
<title>[root] aws_lambda_function.sample_function (expand)&#45;&gt;[root] aws_iam_role_policy_attachment.lambda_logging (expand)</title>
<path fill="none" stroke="black" d="M744.94,-287.88C730.03,-278.72 711.49,-267.34 695.44,-257.48"/>
<polygon fill="black" stroke="black" points="697.17,-254.44 686.82,-252.19 693.51,-260.41 697.17,-254.44"/>
</g>
<!-- [root] var.output_archive_name -->
<g id="node10" class="node">
<title>[root] var.output_archive_name</title>
<polygon fill="none" stroke="black" points="1049.32,-252 860.32,-252 860.32,-216 1055.32,-216 1055.32,-246 1049.32,-252"/>
<polyline fill="none" stroke="black" points="1049.32,-252 1049.32,-246 "/>
<polyline fill="none" stroke="black" points="1055.32,-246 1049.32,-246 "/>
<text text-anchor="middle" x="957.82" y="-230.3" font-family="Times,serif" font-size="14.00">var.output_archive_name</text>
</g>
<!-- [root] aws_lambda_function.sample_function (expand)&#45;&gt;[root] var.output_archive_name -->
<g id="edge7" class="edge">
<title>[root] aws_lambda_function.sample_function (expand)&#45;&gt;[root] var.output_archive_name</title>
<path fill="none" stroke="black" d="M818.08,-287.88C843.82,-278.14 876.23,-265.87 903.36,-255.61"/>
<polygon fill="black" stroke="black" points="904.6,-258.88 912.71,-252.07 902.12,-252.33 904.6,-258.88"/>
</g>
<!-- [root] data.archive_file.sample_function (expand) -->
<g id="node6" class="node">
<title>[root] data.archive_file.sample_function (expand)</title>
<polygon fill="none" stroke="black" points="1344.82,-324 1090.82,-324 1090.82,-288 1344.82,-288 1344.82,-324"/>
<text text-anchor="middle" x="1217.82" y="-302.3" font-family="Times,serif" font-size="14.00">data.archive_file.sample_function</text>
</g>
<!-- [root] provider[&quot;registry.terraform.io/hashicorp/archive&quot;] -->
<g id="node7" class="node">
<title>[root] provider[&quot;registry.terraform.io/hashicorp/archive&quot;]</title>
<polygon fill="none" stroke="black" points="1421.82,-252 1073.6,-234 1421.82,-216 1770.05,-234 1421.82,-252"/>
<text text-anchor="middle" x="1421.82" y="-230.3" font-family="Times,serif" font-size="14.00">provider[&quot;registry.terraform.io/hashicorp/archive&quot;]</text>
</g>
<!-- [root] data.archive_file.sample_function (expand)&#45;&gt;[root] provider[&quot;registry.terraform.io/hashicorp/archive&quot;] -->
<g id="edge8" class="edge">
<title>[root] data.archive_file.sample_function (expand)&#45;&gt;[root] provider[&quot;registry.terraform.io/hashicorp/archive&quot;]</title>
<path fill="none" stroke="black" d="M1267.47,-287.97C1298.12,-277.45 1337.42,-263.96 1368.69,-253.23"/>
<polygon fill="black" stroke="black" points="1370.22,-256.41 1378.55,-249.85 1367.95,-249.79 1370.22,-256.41"/>
</g>
<!-- [root] data.archive_file.sample_function (expand)&#45;&gt;[root] var.output_archive_name -->
<g id="edge9" class="edge">
<title>[root] data.archive_file.sample_function (expand)&#45;&gt;[root] var.output_archive_name</title>
<path fill="none" stroke="black" d="M1154.55,-287.97C1117.28,-277.93 1069.96,-265.19 1031.07,-254.72"/>
<polygon fill="black" stroke="black" points="1031.94,-251.33 1021.38,-252.11 1030.12,-258.09 1031.94,-251.33"/>
</g>
<!-- [root] var.aws_region -->
<g id="node9" class="node">
<title>[root] var.aws_region</title>
<polygon fill="none" stroke="black" points="598.32,-36 481.32,-36 481.32,0 604.32,0 604.32,-30 598.32,-36"/>
<polyline fill="none" stroke="black" points="598.32,-36 598.32,-30 "/>
<polyline fill="none" stroke="black" points="604.32,-30 598.32,-30 "/>
<text text-anchor="middle" x="542.82" y="-14.3" font-family="Times,serif" font-size="14.00">var.aws_region</text>
</g>
<!-- [root] provider[&quot;registry.terraform.io/hashicorp/aws&quot;]&#45;&gt;[root] var.aws_region -->
<g id="edge16" class="edge">
<title>[root] provider[&quot;registry.terraform.io/hashicorp/aws&quot;]&#45;&gt;[root] var.aws_region</title>
<path fill="none" stroke="black" d="M542.82,-71.7C542.82,-63.98 542.82,-54.71 542.82,-46.11"/>
<polygon fill="black" stroke="black" points="546.32,-46.1 542.82,-36.1 539.32,-46.1 546.32,-46.1"/>
</g>
<!-- [root] meta.count&#45;boundary (EachMode fixup) -->
<g id="node11" class="node">
<title>[root] meta.count&#45;boundary (EachMode fixup)</title>
<ellipse fill="none" stroke="black" cx="824.82" cy="-378" rx="222.86" ry="18"/>
<text text-anchor="middle" x="824.82" y="-374.3" font-family="Times,serif" font-size="14.00">[root] meta.count&#45;boundary (EachMode fixup)</text>
</g>
<!-- [root] meta.count&#45;boundary (EachMode fixup)&#45;&gt;[root] aws_cloudwatch_log_group.sample_function (expand) -->
<g id="edge10" class="edge">
<title>[root] meta.count&#45;boundary (EachMode fixup)&#45;&gt;[root] aws_cloudwatch_log_group.sample_function (expand)</title>
<path fill="none" stroke="black" d="M730.51,-361.68C665.22,-351.08 577.94,-336.9 508.6,-325.64"/>
<polygon fill="black" stroke="black" points="508.94,-322.15 498.51,-324 507.82,-329.06 508.94,-322.15"/>
</g>
<!-- [root] meta.count&#45;boundary (EachMode fixup)&#45;&gt;[root] aws_lambda_function.sample_function (expand) -->
<g id="edge11" class="edge">
<title>[root] meta.count&#45;boundary (EachMode fixup)&#45;&gt;[root] aws_lambda_function.sample_function (expand)</title>
<path fill="none" stroke="black" d="M811.97,-359.7C805.8,-351.39 798.29,-341.28 791.5,-332.14"/>
<polygon fill="black" stroke="black" points="794.3,-330.04 785.53,-324.1 788.68,-334.22 794.3,-330.04"/>
</g>
<!-- [root] meta.count&#45;boundary (EachMode fixup)&#45;&gt;[root] data.archive_file.sample_function (expand) -->
<g id="edge12" class="edge">
<title>[root] meta.count&#45;boundary (EachMode fixup)&#45;&gt;[root] data.archive_file.sample_function (expand)</title>
<path fill="none" stroke="black" d="M912.53,-361.38C971.58,-350.86 1049.78,-336.93 1112.24,-325.81"/>
<polygon fill="black" stroke="black" points="1112.9,-329.24 1122.13,-324.04 1111.67,-322.35 1112.9,-329.24"/>
</g>
<!-- [root] provider[&quot;registry.terraform.io/hashicorp/archive&quot;] (close) -->
<g id="node12" class="node">
<title>[root] provider[&quot;registry.terraform.io/hashicorp/archive&quot;] (close)</title>
<ellipse fill="none" stroke="black" cx="1373.82" cy="-378" rx="308.15" ry="18"/>
<text text-anchor="middle" x="1373.82" y="-374.3" font-family="Times,serif" font-size="14.00">[root] provider[&quot;registry.terraform.io/hashicorp/archive&quot;] (close)</text>
</g>
<!-- [root] provider[&quot;registry.terraform.io/hashicorp/archive&quot;] (close)&#45;&gt;[root] data.archive_file.sample_function (expand) -->
<g id="edge13" class="edge">
<title>[root] provider[&quot;registry.terraform.io/hashicorp/archive&quot;] (close)&#45;&gt;[root] data.archive_file.sample_function (expand)</title>
<path fill="none" stroke="black" d="M1336.06,-360.05C1314.66,-350.45 1287.7,-338.35 1264.93,-328.14"/>
<polygon fill="black" stroke="black" points="1266.34,-324.93 1255.78,-324.03 1263.47,-331.32 1266.34,-324.93"/>
</g>
<!-- [root] provider[&quot;registry.terraform.io/hashicorp/aws&quot;] (close) -->
<g id="node13" class="node">
<title>[root] provider[&quot;registry.terraform.io/hashicorp/aws&quot;] (close)</title>
<ellipse fill="none" stroke="black" cx="291.82" cy="-378" rx="291.65" ry="18"/>
<text text-anchor="middle" x="291.82" y="-374.3" font-family="Times,serif" font-size="14.00">[root] provider[&quot;registry.terraform.io/hashicorp/aws&quot;] (close)</text>
</g>
<!-- [root] provider[&quot;registry.terraform.io/hashicorp/aws&quot;] (close)&#45;&gt;[root] aws_cloudwatch_log_group.sample_function (expand) -->
<g id="edge14" class="edge">
<title>[root] provider[&quot;registry.terraform.io/hashicorp/aws&quot;] (close)&#45;&gt;[root] aws_cloudwatch_log_group.sample_function (expand)</title>
<path fill="none" stroke="black" d="M316.52,-360.05C329.7,-351.01 346.11,-339.74 360.42,-329.93"/>
<polygon fill="black" stroke="black" points="362.74,-332.58 369.01,-324.03 358.78,-326.8 362.74,-332.58"/>
</g>
<!-- [root] provider[&quot;registry.terraform.io/hashicorp/aws&quot;] (close)&#45;&gt;[root] aws_lambda_function.sample_function (expand) -->
<g id="edge15" class="edge">
<title>[root] provider[&quot;registry.terraform.io/hashicorp/aws&quot;] (close)&#45;&gt;[root] aws_lambda_function.sample_function (expand)</title>
<path fill="none" stroke="black" d="M400.07,-361.25C472.85,-350.66 569.08,-336.65 645.53,-325.53"/>
<polygon fill="black" stroke="black" points="646.31,-328.95 655.7,-324.04 645.3,-322.02 646.31,-328.95"/>
</g>
<!-- [root] root -->
<g id="node14" class="node">
<title>[root] root</title>
<ellipse fill="none" stroke="black" cx="824.82" cy="-450" rx="58.49" ry="18"/>
<text text-anchor="middle" x="824.82" y="-446.3" font-family="Times,serif" font-size="14.00">[root] root</text>
</g>
<!-- [root] root&#45;&gt;[root] meta.count&#45;boundary (EachMode fixup) -->
<g id="edge17" class="edge">
<title>[root] root&#45;&gt;[root] meta.count&#45;boundary (EachMode fixup)</title>
<path fill="none" stroke="black" d="M824.82,-431.7C824.82,-423.98 824.82,-414.71 824.82,-406.11"/>
<polygon fill="black" stroke="black" points="828.32,-406.1 824.82,-396.1 821.32,-406.1 828.32,-406.1"/>
</g>
<!-- [root] root&#45;&gt;[root] provider[&quot;registry.terraform.io/hashicorp/archive&quot;] (close) -->
<g id="edge18" class="edge">
<title>[root] root&#45;&gt;[root] provider[&quot;registry.terraform.io/hashicorp/archive&quot;] (close)</title>
<path fill="none" stroke="black" d="M877.71,-442.26C960.95,-431.64 1125.03,-410.72 1241.68,-395.85"/>
<polygon fill="black" stroke="black" points="1242.28,-399.3 1251.76,-394.56 1241.39,-392.36 1242.28,-399.3"/>
</g>
<!-- [root] root&#45;&gt;[root] provider[&quot;registry.terraform.io/hashicorp/aws&quot;] (close) -->
<g id="edge19" class="edge">
<title>[root] root&#45;&gt;[root] provider[&quot;registry.terraform.io/hashicorp/aws&quot;] (close)</title>
<path fill="none" stroke="black" d="M772.26,-442.1C691,-431.42 532.5,-410.61 419.79,-395.81"/>
<polygon fill="black" stroke="black" points="420.08,-392.31 409.71,-394.48 419.17,-399.25 420.08,-392.31"/>
</g>
</g>
</svg>
